<svg width="10" height="12" viewBox="0 0 10 12" fill="none" xmlns="http://www.w3.org/2000/svg">
<g clip-path="url(#clip0_357_226)">
<path d="M4.04688 0.759371C4.43527 0.82734 4.69866 1.21406 4.63393 1.62187L4.41518 3H6.53795L6.79464 1.37578C6.85938 0.967965 7.22768 0.691402 7.61607 0.759371C8.00447 0.82734 8.26786 1.21406 8.20312 1.62187L7.98661 3H9.28571C9.6808 3 10 3.33515 10 3.75C10 4.16484 9.6808 4.5 9.28571 4.5H7.74777L7.27232 7.5H8.57143C8.96652 7.5 9.28571 7.83515 9.28571 8.25C9.28571 8.66484 8.96652 9 8.57143 9H7.03348L6.77679 10.6242C6.71205 11.032 6.34375 11.3086 5.95536 11.2406C5.56696 11.1727 5.30357 10.7859 5.3683 10.3781L5.58705 9.00234H3.46205L3.20536 10.6266C3.14063 11.0344 2.77232 11.3109 2.38393 11.243C1.99554 11.175 1.73214 10.7883 1.79688 10.3805L2.01339 9H0.714286C0.319196 9 0 8.66484 0 8.25C0 7.83515 0.319196 7.5 0.714286 7.5H2.25223L2.72768 4.5H1.42857C1.03348 4.5 0.714286 4.16484 0.714286 3.75C0.714286 3.33515 1.03348 3 1.42857 3H2.96652L3.22321 1.37578C3.28795 0.967965 3.65625 0.691402 4.04464 0.759371H4.04688ZM4.17634 4.5L3.70089 7.5H5.82366L6.29911 4.5H4.17634Z" fill="#BFBFBF"/>
</g>
<defs>
<clipPath id="clip0_357_226">
<rect width="10" height="12" fill="white"/>
</clipPath>
</defs>
</svg>
