<svg width="20" height="20" viewBox="0 0 20 20" fill="none" xmlns="http://www.w3.org/2000/svg">
<path d="M11.4286 1.75C11.4286 0.920312 10.7902 0.25 10 0.25C9.20983 0.25 8.57144 0.920312 8.57144 1.75V8.5H2.14287C1.35269 8.5 0.714294 9.17031 0.714294 10C0.714294 10.8297 1.35269 11.5 2.14287 11.5H8.57144V18.25C8.57144 19.0797 9.20983 19.75 10 19.75C10.7902 19.75 11.4286 19.0797 11.4286 18.25V11.5H17.8572C18.6473 11.5 19.2857 10.8297 19.2857 10C19.2857 9.17031 18.6473 8.5 17.8572 8.5H11.4286V1.75Z" fill="#C7C7C7"/>
</svg>
