<svg width="11" height="16" viewBox="0 0 11 16" fill="none" xmlns="http://www.w3.org/2000/svg">
<path d="M9.8141 11.0879C10.1722 11.4541 10.1722 12.0488 9.8141 12.415C9.45602 12.7812 8.87451 12.7812 8.51644 12.415L5.50003 9.32715L2.48076 12.4121C2.12269 12.7783 1.54118 12.7783 1.18311 12.4121C0.825033 12.0459 0.825033 11.4512 1.18311 11.085L4.20238 8L1.18597 4.91211C0.827897 4.5459 0.827897 3.95117 1.18597 3.58496C1.54404 3.21875 2.12555 3.21875 2.48363 3.58496L5.50003 6.67285L8.5193 3.58789C8.87738 3.22168 9.45889 3.22168 9.81696 3.58789C10.175 3.9541 10.175 4.54883 9.81696 4.91504L6.79769 8L9.8141 11.0879Z" fill="#FF2E00"/>
</svg>
