<svg width="15" height="18" viewBox="0 0 15 18" fill="none" xmlns="http://www.w3.org/2000/svg">
<path d="M7.5 0C6.90731 0 6.42846 0.502734 6.42846 1.125V1.8C3.98402 2.32031 2.14232 4.59141 2.14232 7.3125V8.20547C2.14232 9.80156 1.6233 11.352 0.675658 12.5965L0.176724 13.2539C-0.0174915 13.507 -0.0543255 13.8551 0.0796164 14.1469C0.213558 14.4387 0.494836 14.625 0.802903 14.625H14.1971C14.5052 14.625 14.7864 14.4387 14.9204 14.1469C15.0543 13.8551 15.0175 13.507 14.8233 13.2539L14.3243 12.6C13.3767 11.352 12.8577 9.80156 12.8577 8.20547V7.3125C12.8577 4.59141 11.016 2.32031 8.57154 1.8V1.125C8.57154 0.502734 8.09269 0 7.5 0ZM7.5 3.375C9.57275 3.375 11.2504 5.13633 11.2504 7.3125V8.20547C11.2504 9.88945 11.7158 11.5312 12.5797 12.9375H2.42025C3.28418 11.5312 3.74963 9.88945 3.74963 8.20547V7.3125C3.74963 5.13633 5.42725 3.375 7.5 3.375ZM9.64307 15.75H7.5H5.35693C5.35693 16.3477 5.58128 16.9207 5.98311 17.3426C6.38493 17.7645 6.93075 18 7.5 18C8.06925 18 8.61507 17.7645 9.01689 17.3426C9.41872 16.9207 9.64307 16.3477 9.64307 15.75Z" fill="black"/>
</svg>
