<svg width="19" height="19" viewBox="0 0 19 19" fill="none" xmlns="http://www.w3.org/2000/svg">
<path d="M16.3652 2.18575L16.8143 2.63477C17.1631 2.9836 17.1631 3.54766 16.8143 3.89278L15.7344 4.97637L14.0236 3.26563L15.1035 2.18575C15.4523 1.83692 16.0164 1.83692 16.3615 2.18575H16.3652ZM7.78555 9.50743L12.7656 4.52364L14.4764 6.23438L9.49258 11.2145C9.38496 11.3221 9.25137 11.4 9.10664 11.4408L6.93574 12.0606L7.55547 9.88966C7.59629 9.74493 7.67422 9.61133 7.78184 9.50372L7.78555 9.50743ZM13.8455 0.927741L6.52383 8.24571C6.20098 8.56856 5.96719 8.96563 5.84473 9.39981L4.7834 13.1107C4.69434 13.4225 4.77969 13.7565 5.00977 13.9865C5.23984 14.2166 5.57383 14.302 5.88555 14.2129L9.59648 13.1516C10.0344 13.0254 10.4314 12.7916 10.7506 12.4725L18.0723 5.1545C19.115 4.11172 19.115 2.41954 18.0723 1.37676L17.6232 0.927741C16.5805 -0.115033 14.8883 -0.115033 13.8455 0.927741ZM3.26562 2.37501C1.46211 2.37501 0 3.83712 0 5.64063V15.7344C0 17.5379 1.46211 19 3.26562 19H13.3594C15.1629 19 16.625 17.5379 16.625 15.7344V11.5781C16.625 11.0846 16.2279 10.6875 15.7344 10.6875C15.2408 10.6875 14.8438 11.0846 14.8438 11.5781V15.7344C14.8438 16.5545 14.1795 17.2188 13.3594 17.2188H3.26562C2.44551 17.2188 1.78125 16.5545 1.78125 15.7344V5.64063C1.78125 4.82051 2.44551 4.15626 3.26562 4.15626H7.42188C7.91543 4.15626 8.3125 3.75919 8.3125 3.26563C8.3125 2.77208 7.91543 2.37501 7.42188 2.37501H3.26562Z" fill="black"/>
</svg>
