<svg width="18" height="17" viewBox="0 0 18 17" fill="none" xmlns="http://www.w3.org/2000/svg">
<path d="M10.1111 1.06252C10.1111 0.733813 9.95486 0.425024 9.68403 0.225805C9.4132 0.0265862 9.0625 -0.0464607 8.72917 0.0332268L2.48264 1.52737C1.74306 1.70334 1.22222 2.34084 1.22222 3.07131V14.875H0.111111C-0.503472 14.875 -1 15.3498 -1 15.9375C-1 16.5252 -0.503472 17 0.111111 17H2.33333H9H10.1111V15.9375V1.06252ZM7.88889 8.50002C7.88889 9.08772 7.51736 9.56252 7.05556 9.56252C6.59375 9.56252 6.22222 9.08772 6.22222 8.50002C6.22222 7.91233 6.59375 7.43752 7.05556 7.43752C7.51736 7.43752 7.88889 7.91233 7.88889 8.50002ZM11.2222 4.25002H14.5556V15.9375C14.5556 16.5252 15.0521 17 15.6667 17H17.8889C18.5035 17 19 16.5252 19 15.9375C19 15.3498 18.5035 14.875 17.8889 14.875H16.7778V4.25002C16.7778 3.07795 15.7812 2.12502 14.5556 2.12502H11.2222V4.25002Z" fill="black"/>
</svg>
