<svg width="32" height="38" viewBox="0 0 32 38" fill="none" xmlns="http://www.w3.org/2000/svg">
<g clip-path="url(#clip0_141_1006)">
<path d="M10.8571 1.78125C10.8571 0.794141 10.0929 0 9.14286 0C8.19286 0 7.42857 0.794141 7.42857 1.78125V4.75H4.57143C2.05 4.75 0 6.88008 0 9.5V10.6875V14.25V33.25C0 35.8699 2.05 38 4.57143 38H27.4286C29.95 38 32 35.8699 32 33.25V14.25V10.6875V9.5C32 6.88008 29.95 4.75 27.4286 4.75H24.5714V1.78125C24.5714 0.794141 23.8071 0 22.8571 0C21.9071 0 21.1429 0.794141 21.1429 1.78125V4.75H10.8571V1.78125ZM3.42857 14.25H28.5714V33.25C28.5714 33.9031 28.0571 34.4375 27.4286 34.4375H4.57143C3.94286 34.4375 3.42857 33.9031 3.42857 33.25V14.25Z" fill="#ECECEC"/>
</g>
<defs>
<clipPath id="clip0_141_1006">
<rect width="32" height="38" fill="white"/>
</clipPath>
</defs>
</svg>
