<svg width="28" height="38" viewBox="0 0 28 38" fill="none" xmlns="http://www.w3.org/2000/svg">
<path d="M23.3333 34.4375C23.975 34.4375 24.5 33.9031 24.5 33.25V11.875H18.6667C17.376 11.875 16.3333 10.8137 16.3333 9.5V3.5625H4.66667C4.025 3.5625 3.5 4.09688 3.5 4.75V33.25C3.5 33.9031 4.025 34.4375 4.66667 34.4375H23.3333ZM0 4.75C0 2.13008 2.09271 0 4.66667 0H16.7344C17.974 0 19.1625 0.497266 20.0375 1.38789L26.6365 8.10469C27.5115 8.99531 28 10.2051 28 11.4668V33.25C28 35.8699 25.9073 38 23.3333 38H4.66667C2.09271 38 0 35.8699 0 33.25V4.75Z" fill="#ECECEC"/>
</svg>
