<svg width="16" height="16" viewBox="0 0 16 16" fill="none" xmlns="http://www.w3.org/2000/svg">
<path d="M12.8421 7.22031L13.1952 6.86719L12.1359 5.80781L10.1952 3.86719L9.13586 2.80781L8.78273 3.16094L8.07648 3.86719L1.85148 10.0922C1.52648 10.4172 1.28898 10.8203 1.15773 11.2609L0.0514819 15.0234C-0.0266431 15.2859 0.0452319 15.5703 0.242107 15.7641C0.438982 15.9578 0.720232 16.0297 0.982732 15.9547L4.74211 14.8484C5.18273 14.7172 5.58586 14.4797 5.91086 14.1547L12.1359 7.92969L12.8421 7.22031ZM5.02023 12.4828L4.73586 13.1922C4.61086 13.2891 4.47023 13.3609 4.32023 13.4078L1.87648 14.1266L2.59523 11.6859C2.63898 11.5328 2.71398 11.3922 2.81086 11.2703L3.52023 10.9859V11.9859C3.52023 12.2609 3.74523 12.4859 4.02023 12.4859H5.02023V12.4828ZM11.3546 0.585937L10.9046 1.03906L10.1984 1.74531L9.84211 2.09844L10.9015 3.15781L12.8421 5.09844L13.9015 6.15781L14.2546 5.80469L14.9609 5.09844L15.414 4.64531C16.1952 3.86406 16.1952 2.59844 15.414 1.81719L14.1859 0.585937C13.4046 -0.195312 12.139 -0.195312 11.3577 0.585937H11.3546ZM9.87336 5.83594L5.37336 10.3359C5.17961 10.5297 4.86086 10.5297 4.66711 10.3359C4.47336 10.1422 4.47336 9.82344 4.66711 9.62969L9.16711 5.12969C9.36086 4.93594 9.67961 4.93594 9.87336 5.12969C10.0671 5.32344 10.0671 5.64219 9.87336 5.83594Z" fill="#8E8E92"/>
</svg>
