<svg width="33" height="38" viewBox="0 0 33 38" fill="none" xmlns="http://www.w3.org/2000/svg">
<path d="M13.3547 2.40469C14.6364 2.61992 15.5056 3.84453 15.292 5.13594L14.5701 9.5H21.5752L22.4223 4.35664C22.6359 3.06523 23.8513 2.18945 25.133 2.40469C26.4147 2.61992 27.2839 3.84453 27.0703 5.13594L26.3558 9.5H30.6429C31.9467 9.5 33 10.5613 33 11.875C33 13.1887 31.9467 14.25 30.6429 14.25H25.5676L23.9987 23.75H28.2857C29.5895 23.75 30.6429 24.8113 30.6429 26.125C30.6429 27.4387 29.5895 28.5 28.2857 28.5H23.2105L22.3634 33.6434C22.1498 34.9348 20.9344 35.8105 19.6527 35.5953C18.371 35.3801 17.5018 34.1555 17.7154 32.8641L18.4373 28.5074H11.4248L10.5777 33.6508C10.3641 34.9422 9.14866 35.818 7.86696 35.6027C6.58527 35.3875 5.71607 34.1629 5.92969 32.8715L6.6442 28.5H2.35714C1.05335 28.5 0 27.4387 0 26.125C0 24.8113 1.05335 23.75 2.35714 23.75H7.43237L9.00134 14.25H4.71429C3.41049 14.25 2.35714 13.1887 2.35714 11.875C2.35714 10.5613 3.41049 9.5 4.71429 9.5H9.78951L10.6366 4.35664C10.8502 3.06523 12.0656 2.18945 13.3473 2.40469H13.3547ZM13.7819 14.25L12.2129 23.75H19.2181L20.7871 14.25H13.7819Z" fill="#ECECEC"/>
</svg>
