<svg width="23" height="21" viewBox="0 0 23 21" fill="none" xmlns="http://www.w3.org/2000/svg">
<path d="M13.1428 1.90625C13.1428 1.04199 12.4087 0.34375 11.5 0.34375C10.5913 0.34375 9.85713 1.04199 9.85713 1.90625V8.9375H2.46427C1.55556 8.9375 0.821411 9.63574 0.821411 10.5C0.821411 11.3643 1.55556 12.0625 2.46427 12.0625H9.85713V19.0938C9.85713 19.958 10.5913 20.6562 11.5 20.6562C12.4087 20.6562 13.1428 19.958 13.1428 19.0938V12.0625H20.5357C21.4444 12.0625 22.1786 11.3643 22.1786 10.5C22.1786 9.63574 21.4444 8.9375 20.5357 8.9375H13.1428V1.90625Z" fill="#8E8E92"/>
</svg>
