<svg width="17" height="21" viewBox="0 0 17 21" fill="none" xmlns="http://www.w3.org/2000/svg">
<g clip-path="url(#clip0_174_628)">
<path d="M5.13036 1.19141C5.33527 0.765625 5.75647 0.5 6.21563 0.5H10.7844C11.2435 0.5 11.6647 0.765625 11.8696 1.19141L12.1429 1.75H15.7857C16.4574 1.75 17 2.30859 17 3C17 3.69141 16.4574 4.25 15.7857 4.25H1.21429C0.542634 4.25 0 3.69141 0 3C0 2.30859 0.542634 1.75 1.21429 1.75H4.85714L5.13036 1.19141ZM1.21429 5.5H15.7857V18C15.7857 19.3789 14.6967 20.5 13.3571 20.5H3.64286C2.30335 20.5 1.21429 19.3789 1.21429 18V5.5ZM4.85714 8C4.52321 8 4.25 8.28125 4.25 8.625V17.375C4.25 17.7188 4.52321 18 4.85714 18C5.19107 18 5.46429 17.7188 5.46429 17.375V8.625C5.46429 8.28125 5.19107 8 4.85714 8ZM8.5 8C8.16607 8 7.89286 8.28125 7.89286 8.625V17.375C7.89286 17.7188 8.16607 18 8.5 18C8.83393 18 9.10714 17.7188 9.10714 17.375V8.625C9.10714 8.28125 8.83393 8 8.5 8ZM12.1429 8C11.8089 8 11.5357 8.28125 11.5357 8.625V17.375C11.5357 17.7188 11.8089 18 12.1429 18C12.4768 18 12.75 17.7188 12.75 17.375V8.625C12.75 8.28125 12.4768 8 12.1429 8Z" fill="#8E8E92"/>
</g>
<defs>
<clipPath id="clip0_174_628">
<rect width="17" height="20" fill="white" transform="translate(0 0.5)"/>
</clipPath>
</defs>
</svg>
