<svg width="21" height="21" viewBox="0 0 21 21" fill="none" xmlns="http://www.w3.org/2000/svg">
<path d="M10.5 0C11.226 0 11.8125 0.586523 11.8125 1.3125V2.625H13.125C13.6541 2.625 14.134 2.94492 14.3391 3.43711C14.5441 3.9293 14.4293 4.49121 14.0561 4.86855L11.4311 7.49355C10.9184 8.00625 10.0857 8.00625 9.57305 7.49355L6.94805 4.86855C6.5707 4.49121 6.45996 3.9293 6.66504 3.43711C6.87012 2.94492 7.3459 2.625 7.8791 2.625H9.1916V1.3125C9.1916 0.586523 9.77812 0 10.5041 0H10.5ZM6.94805 16.1355L9.57305 13.5105C10.0857 12.9979 10.9184 12.9979 11.4311 13.5105L14.0561 16.1355C14.4334 16.5129 14.5441 17.0748 14.3391 17.567C14.134 18.0592 13.6582 18.3791 13.125 18.3791H11.8125V19.6916C11.8125 20.4176 11.226 21.0041 10.5 21.0041C9.77402 21.0041 9.1875 20.4176 9.1875 19.6916V18.375H7.875C7.3459 18.375 6.86602 18.0551 6.66094 17.5629C6.45586 17.0707 6.5707 16.5088 6.94395 16.1314L6.94805 16.1355ZM1.3125 9.1875H2.625V7.875C2.625 7.3459 2.94492 6.86602 3.43711 6.66094C3.9293 6.45586 4.49121 6.5707 4.86855 6.94395L7.49355 9.56895C8.00625 10.0816 8.00625 10.9143 7.49355 11.427L4.86855 14.052C4.49121 14.4293 3.9293 14.54 3.43711 14.335C2.94492 14.1299 2.625 13.6541 2.625 13.1209V11.8125H1.3125C0.586523 11.8125 0 11.226 0 10.5C0 9.77402 0.586523 9.1875 1.3125 9.1875ZM13.5105 11.427C12.9979 10.9143 12.9979 10.0816 13.5105 9.56895L16.1355 6.94395C16.5129 6.5666 17.0748 6.45586 17.567 6.66094C18.0592 6.86602 18.3791 7.3418 18.3791 7.875V9.1875H19.6916C20.4176 9.1875 21.0041 9.77402 21.0041 10.5C21.0041 11.226 20.4176 11.8125 19.6916 11.8125H18.375V13.125C18.375 13.6541 18.0551 14.134 17.5629 14.3391C17.0707 14.5441 16.5088 14.4293 16.1314 14.0561L13.5064 11.4311L13.5105 11.427ZM10.5 9.1875C10.8481 9.1875 11.1819 9.32578 11.4281 9.57192C11.6742 9.81806 11.8125 10.1519 11.8125 10.5C11.8125 10.8481 11.6742 11.1819 11.4281 11.4281C11.1819 11.6742 10.8481 11.8125 10.5 11.8125C10.1519 11.8125 9.81806 11.6742 9.57192 11.4281C9.32578 11.1819 9.1875 10.8481 9.1875 10.5C9.1875 10.1519 9.32578 9.81806 9.57192 9.57192C9.81806 9.32578 10.1519 9.1875 10.5 9.1875Z" fill="#8E8E92"/>
</svg>
