<svg width="23" height="19" viewBox="0 0 23 19" fill="none" xmlns="http://www.w3.org/2000/svg">
<path d="M3.45 5C3.45 3.80653 3.93464 2.66193 4.79731 1.81802C5.65998 0.974106 6.83 0.5 8.05 0.5C9.27 0.5 10.44 0.974106 11.3027 1.81802C12.1654 2.66193 12.65 3.80653 12.65 5C12.65 6.19347 12.1654 7.33807 11.3027 8.18198C10.44 9.02589 9.27 9.5 8.05 9.5C6.83 9.5 5.65998 9.02589 4.79731 8.18198C3.93464 7.33807 3.45 6.19347 3.45 5ZM0 17.4559C0 13.993 2.86781 11.1875 6.40766 11.1875H9.69234C13.2322 11.1875 16.1 13.993 16.1 17.4559C16.1 18.0324 15.622 18.5 15.0327 18.5H1.06734C0.477969 18.5 0 18.0324 0 17.4559ZM18.1125 11.4688V9.21875H15.8125C15.3345 9.21875 14.95 8.84258 14.95 8.375C14.95 7.90742 15.3345 7.53125 15.8125 7.53125H18.1125V5.28125C18.1125 4.81367 18.497 4.4375 18.975 4.4375C19.453 4.4375 19.8375 4.81367 19.8375 5.28125V7.53125H22.1375C22.6155 7.53125 23 7.90742 23 8.375C23 8.84258 22.6155 9.21875 22.1375 9.21875H19.8375V11.4688C19.8375 11.9363 19.453 12.3125 18.975 12.3125C18.497 12.3125 18.1125 11.9363 18.1125 11.4688Z" fill="#8E8E92"/>
</svg>
