<svg width="18" height="22" viewBox="0 0 18 22" fill="none" xmlns="http://www.w3.org/2000/svg">
<path d="M9 6.47178e-08C8.28877 5.96034e-08 7.71416 0.614453 7.71416 1.375L7.71416 2.2C4.78083 2.83594 2.57079 5.61172 2.57079 8.9375L2.57079 10.0289C2.57079 11.9797 1.94796 13.8746 0.81079 15.3957L0.212069 16.1992C-0.0209897 16.5086 -0.0651906 16.934 0.0955398 17.2906C0.25627 17.6473 0.593804 17.875 0.963484 17.875L17.0365 17.875C17.4062 17.875 17.7437 17.6473 17.9045 17.2906C18.0652 16.934 18.021 16.5086 17.7879 16.1992L17.1892 15.4C16.052 13.8746 15.4292 11.9797 15.4292 10.0289L15.4292 8.9375C15.4292 5.61172 13.2192 2.83594 10.2858 2.2L10.2858 1.375C10.2858 0.614453 9.71123 6.98322e-08 9 6.47178e-08ZM9 4.125C11.4873 4.125 13.5004 6.27773 13.5004 8.9375L13.5004 10.0289C13.5004 12.0871 14.059 14.0938 15.0957 15.8125L2.9043 15.8125C3.94101 14.0938 4.49955 12.0871 4.49955 10.0289L4.49955 8.9375C4.49955 6.27773 6.5127 4.125 9 4.125ZM11.5717 19.25L9 19.25L6.42832 19.25C6.42832 19.9805 6.69754 20.6809 7.17973 21.1965C7.66192 21.7121 8.3169 22 9 22C9.6831 22 10.3381 21.7121 10.8203 21.1965C11.3025 20.6809 11.5717 19.9805 11.5717 19.25Z" fill="black"/>
</svg>
