<svg width="7" height="18" viewBox="0 0 7 18" fill="none" xmlns="http://www.w3.org/2000/svg">
<path d="M1.75 1.96875C1.75 1.49633 1.93437 1.04327 2.26256 0.709216C2.59075 0.375167 3.03587 0.1875 3.5 0.1875C3.96413 0.1875 4.40925 0.375167 4.73744 0.709216C5.06563 1.04327 5.25 1.49633 5.25 1.96875C5.25 2.44117 5.06563 2.89423 4.73744 3.22828C4.40925 3.56233 3.96413 3.75 3.5 3.75C3.03587 3.75 2.59075 3.56233 2.26256 3.22828C1.93437 2.89423 1.75 2.44117 1.75 1.96875ZM0 7.3125C0 6.65566 0.521354 6.125 1.16667 6.125H3.5C4.14531 6.125 4.66667 6.65566 4.66667 7.3125V15.625H5.83333C6.47865 15.625 7 16.1557 7 16.8125C7 17.4693 6.47865 18 5.83333 18H1.16667C0.521354 18 0 17.4693 0 16.8125C0 16.1557 0.521354 15.625 1.16667 15.625H2.33333V8.5H1.16667C0.521354 8.5 0 7.96934 0 7.3125Z" fill="black"/>
</svg>
