<svg width="19" height="19" viewBox="0 0 19 19" fill="none" xmlns="http://www.w3.org/2000/svg">
<path d="M18.4026 6.18242C18.5214 6.50527 18.4212 6.86523 18.1651 7.09531L16.5583 8.55742C16.5991 8.86543 16.6214 9.18086 16.6214 9.5C16.6214 9.81914 16.5991 10.1346 16.5583 10.4426L18.1651 11.9047C18.4212 12.1348 18.5214 12.4947 18.4026 12.8176C18.2393 13.2592 18.0427 13.6822 17.8163 14.0904L17.6419 14.391C17.397 14.7992 17.1223 15.1852 16.8218 15.5488C16.6028 15.816 16.2391 15.9051 15.9126 15.8012L13.8456 15.1443C13.3483 15.5266 12.7991 15.8457 12.2128 16.0869L11.7489 18.2059C11.6747 18.5436 11.4149 18.8107 11.0735 18.8664C10.5614 18.9518 10.0345 18.9963 9.49637 18.9963C8.95829 18.9963 8.43133 18.9518 7.91922 18.8664C7.57782 18.8107 7.31805 18.5436 7.24383 18.2059L6.77997 16.0869C6.19364 15.8457 5.64442 15.5266 5.14715 15.1443L3.08387 15.8049C2.75731 15.9088 2.39364 15.816 2.17469 15.5525C1.87411 15.1889 1.5995 14.8029 1.35457 14.3947L1.18016 14.0941C0.953794 13.6859 0.757114 13.2629 0.593833 12.8213C0.475083 12.4984 0.575278 12.1385 0.831333 11.9084L2.43817 10.4463C2.39735 10.1346 2.37508 9.81914 2.37508 9.5C2.37508 9.18086 2.39735 8.86543 2.43817 8.55742L0.831333 7.09531C0.575278 6.86523 0.475083 6.50527 0.593833 6.18242C0.757114 5.74082 0.953794 5.31777 1.18016 4.90957L1.35457 4.60898C1.5995 4.20078 1.87411 3.81484 2.17469 3.45117C2.39364 3.18398 2.75731 3.09492 3.08387 3.19883L5.15086 3.85566C5.64813 3.47344 6.19735 3.1543 6.78368 2.91309L7.24754 0.794141C7.32176 0.456445 7.58153 0.189258 7.92293 0.133594C8.43504 0.0445312 8.962 0 9.50008 0C10.0382 0 10.5651 0.0445313 11.0772 0.129883C11.4186 0.185547 11.6784 0.452734 11.7526 0.79043L12.2165 2.90938C12.8028 3.15059 13.352 3.46973 13.8493 3.85195L15.9163 3.19512C16.2429 3.09121 16.6065 3.18398 16.8255 3.44746C17.1261 3.81113 17.4007 4.19707 17.6456 4.60527L17.82 4.90586C18.0464 5.31406 18.2431 5.73711 18.4063 6.17871L18.4026 6.18242ZM9.50008 12.4688C10.2874 12.4688 11.0426 12.156 11.5993 11.5992C12.1561 11.0425 12.4688 10.2874 12.4688 9.5C12.4688 8.71264 12.1561 7.95753 11.5993 7.40078C11.0426 6.84403 10.2874 6.53125 9.50008 6.53125C8.71272 6.53125 7.95761 6.84403 7.40086 7.40078C6.84411 7.95753 6.53133 8.71264 6.53133 9.5C6.53133 10.2874 6.84411 11.0425 7.40086 11.5992C7.95761 12.156 8.71272 12.4688 9.50008 12.4688Z" fill="black"/>
</svg>
