<svg width="16" height="14" viewBox="0 0 16 14" fill="none" xmlns="http://www.w3.org/2000/svg">
<path d="M10.2505 5.87429C10.2505 6.94991 9.90124 7.94351 9.31293 8.74965L12.2803 11.7187C12.5732 12.0117 12.5732 12.4874 12.2803 12.7803C11.9873 13.0732 11.5115 13.0732 11.2185 12.7803L8.25116 9.81121C7.44487 10.4017 6.45107 10.7486 5.37524 10.7486C2.68214 10.7486 0.5 8.56686 0.5 5.87429C0.5 3.18171 2.68214 1 5.37524 1C8.06834 1 10.2505 3.18171 10.2505 5.87429ZM5.37524 9.24879C5.81847 9.24879 6.25736 9.16151 6.66686 8.99192C7.07635 8.82234 7.44843 8.57377 7.76184 8.26042C8.07525 7.94707 8.32387 7.57507 8.49348 7.16565C8.6631 6.75624 8.7504 6.31743 8.7504 5.87429C8.7504 5.43114 8.6631 4.99233 8.49348 4.58292C8.32387 4.1735 8.07525 3.8015 7.76184 3.48815C7.44843 3.1748 7.07635 2.92623 6.66686 2.75665C6.25736 2.58706 5.81847 2.49978 5.37524 2.49978C4.932 2.49978 4.49311 2.58706 4.08362 2.75665C3.67412 2.92623 3.30205 3.1748 2.98864 3.48815C2.67522 3.8015 2.42661 4.1735 2.25699 4.58292C2.08737 4.99233 2.00007 5.43114 2.00007 5.87429C2.00007 6.31743 2.08737 6.75624 2.25699 7.16565C2.42661 7.57507 2.67522 7.94707 2.98864 8.26042C3.30205 8.57377 3.67412 8.82234 4.08362 8.99192C4.49311 9.16151 4.932 9.24879 5.37524 9.24879Z" fill="#8E8E92"/>
</svg>
