<svg width="18" height="16" viewBox="0 0 18 16" fill="none" xmlns="http://www.w3.org/2000/svg">
<path d="M0 1.75C0 1.05859 0.574554 0.5 1.28571 0.5H16.7143C17.4254 0.5 18 1.05859 18 1.75C18 2.44141 17.4254 3 16.7143 3H1.28571C0.574554 3 0 2.44141 0 1.75ZM0 8C0 7.30859 0.574554 6.75 1.28571 6.75H16.7143C17.4254 6.75 18 7.30859 18 8C18 8.69141 17.4254 9.25 16.7143 9.25H1.28571C0.574554 9.25 0 8.69141 0 8ZM18 14.25C18 14.9414 17.4254 15.5 16.7143 15.5H1.28571C0.574554 15.5 0 14.9414 0 14.25C0 13.5586 0.574554 13 1.28571 13H16.7143C17.4254 13 18 13.5586 18 14.25Z" fill="black"/>
</svg>
