<svg width="15" height="18" viewBox="0 0 15 18" fill="none" xmlns="http://www.w3.org/2000/svg">
<path d="M0 3.6875C0 3.0998 0.478795 2.625 1.07143 2.625H13.9286C14.5212 2.625 15 3.0998 15 3.6875C15 4.2752 14.5212 4.75 13.9286 4.75H1.07143C0.478795 4.75 0 4.2752 0 3.6875ZM0 9C0 8.4123 0.478795 7.9375 1.07143 7.9375H13.9286C14.5212 7.9375 15 8.4123 15 9C15 9.5877 14.5212 10.0625 13.9286 10.0625H1.07143C0.478795 10.0625 0 9.5877 0 9ZM15 14.3125C15 14.9002 14.5212 15.375 13.9286 15.375H1.07143C0.478795 15.375 0 14.9002 0 14.3125C0 13.7248 0.478795 13.25 1.07143 13.25H13.9286C14.5212 13.25 15 13.7248 15 14.3125Z" fill="#8E8E92"/>
</svg>
