<svg width="13" height="13" viewBox="0 0 13 13" fill="none" xmlns="http://www.w3.org/2000/svg">
<g clip-path="url(#clip0_357_846)">
<path d="M8.00483 0.530026L8.00485 0.530048L8.00094 0.53407L6.85836 1.70712L6.50018 2.07484L6.14201 1.70712L4.99943 0.53407L4.99941 0.534092L4.99554 0.530026C4.96938 0.502565 4.93292 0.49286 4.89805 0.502409L4.76655 0.0221464L4.89805 0.502409C4.85382 0.51452 4.82511 0.547842 4.8169 0.580688L4.81639 0.582691L4.41268 2.1696L4.28616 2.66693L3.79229 2.52753L2.21807 2.0832L2.21653 2.08276C2.17953 2.07218 2.13849 2.08271 2.11077 2.11043C2.08305 2.13815 2.07252 2.17919 2.0831 2.2162L2.08353 2.21774L2.52787 3.79195L2.66747 4.28657L2.16921 4.41253L0.585155 4.81298C0.544765 4.82403 0.51369 4.8552 0.502746 4.89517C0.493385 4.92936 0.502029 4.96935 0.533099 5.00029C0.533287 5.00048 0.533475 5.00067 0.533664 5.00085L1.70491 6.14167L2.07264 6.49985L1.70491 6.85802L0.53187 8.0006L0.530707 8.00173C0.504007 8.02757 0.492721 8.06791 0.502746 8.10452C0.514856 8.14875 0.548179 8.17746 0.581022 8.18567L0.5823 8.186L2.16921 8.58717L2.66747 8.71313L2.52787 9.20774L2.08353 10.782L2.08309 10.7835C2.07252 10.8205 2.08305 10.8615 2.11077 10.8893C2.13849 10.917 2.17953 10.9275 2.21653 10.9169L2.21807 10.9165L3.79229 10.4722L4.2869 10.3326L4.41286 10.8308L4.8133 12.4148C4.82435 12.4552 4.85553 12.4863 4.89551 12.4973C4.9297 12.5066 4.9697 12.498 5.00065 12.4669C5.00083 12.4667 5.00101 12.4665 5.00119 12.4664L6.14201 11.2951L6.50018 10.9274L6.85836 11.2951L7.99918 12.4664C7.99936 12.4666 7.99955 12.4667 7.99974 12.4669C8.03068 12.498 8.07067 12.5066 8.10486 12.4973C8.14909 12.4852 8.1778 12.4519 8.18601 12.419L8.18633 12.4177L8.5875 10.8308L8.71346 10.3326L9.20808 10.4722L10.7823 10.9165L10.7838 10.9169C10.8208 10.9275 10.8619 10.917 10.8896 10.8893C10.9173 10.8615 10.9278 10.8205 10.9173 10.7835L10.9168 10.782L10.4725 9.20774L10.3329 8.71313L10.8312 8.58717L12.4152 8.18673C12.4593 8.1747 12.4878 8.14188 12.4962 8.10989C12.5077 8.06606 12.4933 8.0267 12.47 8.00449L12.47 8.00452L12.466 8.0006L11.2929 6.85802L10.9252 6.49985L11.2929 6.14167L12.466 4.99909L12.4659 4.99907L12.47 4.9952C12.4975 4.96905 12.5072 4.93259 12.4976 4.89771C12.4855 4.85348 12.4522 4.82477 12.4193 4.81656L12.4193 4.81656L12.4173 4.81605L10.8304 4.41234L10.3331 4.28582L10.4725 3.79195L10.9168 2.21774L10.9168 2.21773L10.9173 2.2162C10.9278 2.17919 10.9173 2.13815 10.8896 2.11043C10.8619 2.08271 10.8208 2.07218 10.7838 2.08276L10.7823 2.08319L9.20808 2.52753L8.71346 2.66714L8.5875 2.16888L8.18705 0.584804C8.17501 0.540694 8.1422 0.512221 8.11022 0.503846C8.0664 0.492368 8.02704 0.506708 8.00483 0.530026Z" stroke="#781EED"/>
</g>
<defs>
<clipPath id="clip0_357_846">
<rect width="13" height="13" fill="white" transform="matrix(-1 0 0 1 13 0)"/>
</clipPath>
</defs>
</svg>
