<svg width="15" height="14" viewBox="0 0 15 14" fill="none" xmlns="http://www.w3.org/2000/svg">
<path d="M8.64296 1.15625C8.64296 0.568555 8.13225 0.09375 7.5001 0.09375C6.86796 0.09375 6.35725 0.568555 6.35725 1.15625V5.9375H1.21439C0.582247 5.9375 0.0715332 6.4123 0.0715332 7C0.0715332 7.5877 0.582247 8.0625 1.21439 8.0625H6.35725V12.8438C6.35725 13.4314 6.86796 13.9062 7.5001 13.9062C8.13225 13.9062 8.64296 13.4314 8.64296 12.8438V8.0625H13.7858C14.418 8.0625 14.9287 7.5877 14.9287 7C14.9287 6.4123 14.418 5.9375 13.7858 5.9375H8.64296V1.15625Z" fill="#A3E470"/>
</svg>
