<svg width="16" height="22" viewBox="0 0 16 22" fill="none" xmlns="http://www.w3.org/2000/svg">
<g clip-path="url(#clip0_86_1484)">
<path d="M5.42857 -1.66391C5.42857 -2.23539 5.04643 -2.69516 4.57143 -2.69516C4.09643 -2.69516 3.71429 -2.23539 3.71429 -1.66391V0.0548401H2.28571C1.025 0.0548401 0 1.28804 0 2.80484V3.49234V5.55484V16.5548C0 18.0716 1.025 19.3048 2.28571 19.3048H13.7143C14.975 19.3048 16 18.0716 16 16.5548V5.55484V3.49234V2.80484C16 1.28804 14.975 0.0548401 13.7143 0.0548401H12.2857V-1.66391C12.2857 -2.23539 11.9036 -2.69516 11.4286 -2.69516C10.9536 -2.69516 10.5714 -2.23539 10.5714 -1.66391V0.0548401H5.42857V-1.66391ZM1.71429 5.55484H4.57143V7.96109H1.71429V5.55484ZM1.71429 10.0236H4.57143V12.7736H1.71429V10.0236ZM6.28571 10.0236H9.71429V12.7736H6.28571V10.0236ZM11.4286 10.0236H14.2857V12.7736H11.4286V10.0236ZM14.2857 7.96109H11.4286V5.55484H14.2857V7.96109ZM14.2857 14.8361V16.5548C14.2857 16.933 14.0286 17.2423 13.7143 17.2423H11.4286V14.8361H14.2857ZM9.71429 14.8361V17.2423H6.28571V14.8361H9.71429ZM4.57143 14.8361V17.2423H2.28571C1.97143 17.2423 1.71429 16.933 1.71429 16.5548V14.8361H4.57143ZM9.71429 7.96109H6.28571V5.55484H9.71429V7.96109Z" fill="black"/>
</g>
<defs>
<clipPath id="clip0_86_1484">
<rect width="16" height="22" fill="white"/>
</clipPath>
</defs>
</svg>
