<svg width="19" height="19" viewBox="0 0 19 19" fill="none" xmlns="http://www.w3.org/2000/svg">
<path d="M1.1875 1.1875C1.84434 1.1875 2.375 1.71816 2.375 2.375V14.8438C2.375 15.1703 2.64219 15.4375 2.96875 15.4375H17.8125C18.4693 15.4375 19 15.9682 19 16.625C19 17.2818 18.4693 17.8125 17.8125 17.8125H2.96875C1.32852 17.8125 0 16.484 0 14.8438V2.375C0 1.71816 0.530664 1.1875 1.1875 1.1875ZM4.75 4.75C4.75 4.09316 5.28066 3.5625 5.9375 3.5625H9.5C10.1568 3.5625 10.6875 4.09316 10.6875 4.75C10.6875 5.40684 10.1568 5.9375 9.5 5.9375H5.9375C5.28066 5.9375 4.75 5.40684 4.75 4.75ZM8.3125 7.125H13.0625C13.7193 7.125 14.25 7.65566 14.25 8.3125C14.25 8.96934 13.7193 9.5 13.0625 9.5H8.3125C7.65566 9.5 7.125 8.96934 7.125 8.3125C7.125 7.65566 7.65566 7.125 8.3125 7.125ZM14.25 10.6875H16.625C17.2818 10.6875 17.8125 11.2182 17.8125 11.875C17.8125 12.5318 17.2818 13.0625 16.625 13.0625H14.25C13.5932 13.0625 13.0625 12.5318 13.0625 11.875C13.0625 11.2182 13.5932 10.6875 14.25 10.6875Z" fill="black"/>
</svg>
