<svg width="18" height="18" viewBox="0 0 18 18" fill="none" xmlns="http://www.w3.org/2000/svg">
<g clip-path="url(#clip0_86_1475)">
<path d="M5.34725 1.34298C5.6953 1.65587 5.72343 2.18673 5.41053 2.53478L2.87928 5.34728C2.7246 5.51954 2.50663 5.6215 2.2746 5.62501C2.04257 5.62853 1.82108 5.54064 1.65585 5.37892L0.246082 3.97267C-0.0808716 3.6422 -0.0808716 3.10782 0.246082 2.77736C0.573035 2.44689 1.11093 2.44689 1.43788 2.77736L2.21483 3.55431L4.15194 1.40275C4.46483 1.0547 4.99569 1.02657 5.34374 1.33947L5.34725 1.34298ZM5.34725 6.96798C5.6953 7.28087 5.72343 7.81173 5.41053 8.15978L2.87928 10.9723C2.7246 11.1445 2.50663 11.2465 2.2746 11.25C2.04257 11.2535 1.82108 11.1656 1.65585 11.0039L0.246082 9.59767C-0.0843872 9.2672 -0.0843872 8.73282 0.246082 8.40587C0.57655 8.07892 1.11093 8.0754 1.43788 8.40587L2.21483 9.18283L4.15194 7.03126C4.46483 6.68322 4.99569 6.65509 5.34374 6.96798H5.34725ZM7.87499 3.37501C7.87499 2.75275 8.37772 2.25001 8.99999 2.25001H16.875C17.4973 2.25001 18 2.75275 18 3.37501C18 3.99728 17.4973 4.50001 16.875 4.50001H8.99999C8.37772 4.50001 7.87499 3.99728 7.87499 3.37501ZM7.87499 9.00001C7.87499 8.37775 8.37772 7.87501 8.99999 7.87501H16.875C17.4973 7.87501 18 8.37775 18 9.00001C18 9.62228 17.4973 10.125 16.875 10.125H8.99999C8.37772 10.125 7.87499 9.62228 7.87499 9.00001ZM5.62499 14.625C5.62499 14.0027 6.12772 13.5 6.74999 13.5H16.875C17.4973 13.5 18 14.0027 18 14.625C18 15.2473 17.4973 15.75 16.875 15.75H6.74999C6.12772 15.75 5.62499 15.2473 5.62499 14.625ZM1.68749 12.9375C2.13504 12.9375 2.56426 13.1153 2.88073 13.4318C3.1972 13.7482 3.37499 14.1775 3.37499 14.625C3.37499 15.0726 3.1972 15.5018 2.88073 15.8183C2.56426 16.1347 2.13504 16.3125 1.68749 16.3125C1.23993 16.3125 0.810713 16.1347 0.494245 15.8183C0.177777 15.5018 -1.22171e-05 15.0726 -1.22171e-05 14.625C-1.22171e-05 14.1775 0.177777 13.7482 0.494245 13.4318C0.810713 13.1153 1.23993 12.9375 1.68749 12.9375Z" fill="black"/>
</g>
<defs>
<clipPath id="clip0_86_1475">
<rect width="18" height="18" fill="white"/>
</clipPath>
</defs>
</svg>
