<svg width="19" height="19" viewBox="0 0 19 19" fill="none" xmlns="http://www.w3.org/2000/svg">
<g clip-path="url(#clip0_86_1521)">
<path d="M18.4026 6.18242C18.5213 6.50527 18.4211 6.86523 18.1651 7.09531L16.5582 8.55742C16.599 8.86543 16.6213 9.18086 16.6213 9.5C16.6213 9.81914 16.599 10.1346 16.5582 10.4426L18.1651 11.9047C18.4211 12.1348 18.5213 12.4947 18.4026 12.8176C18.2393 13.2592 18.0426 13.6822 17.8162 14.0904L17.6418 14.391C17.3969 14.7992 17.1223 15.1852 16.8217 15.5488C16.6028 15.816 16.2391 15.9051 15.9125 15.8012L13.8455 15.1443C13.3483 15.5266 12.799 15.8457 12.2127 16.0869L11.7489 18.2059C11.6746 18.5436 11.4149 18.8107 11.0735 18.8664C10.5613 18.9518 10.0344 18.9963 9.49631 18.9963C8.95822 18.9963 8.43127 18.9518 7.91916 18.8664C7.57776 18.8107 7.31799 18.5436 7.24377 18.2059L6.7799 16.0869C6.19358 15.8457 5.64436 15.5266 5.14709 15.1443L3.08381 15.8049C2.75725 15.9088 2.39358 15.816 2.17463 15.5525C1.87405 15.1889 1.59944 14.8029 1.35451 14.3947L1.1801 14.0941C0.953733 13.6859 0.757053 13.2629 0.593772 12.8213C0.475022 12.4984 0.575217 12.1385 0.831272 11.9084L2.43811 10.4463C2.39729 10.1346 2.37502 9.81914 2.37502 9.5C2.37502 9.18086 2.39729 8.86543 2.43811 8.55742L0.831272 7.09531C0.575217 6.86523 0.475022 6.50527 0.593772 6.18242C0.757053 5.74082 0.953733 5.31777 1.1801 4.90957L1.35451 4.60898C1.59944 4.20078 1.87405 3.81484 2.17463 3.45117C2.39358 3.18398 2.75725 3.09492 3.08381 3.19883L5.1508 3.85566C5.64807 3.47344 6.19729 3.1543 6.78362 2.91309L7.24748 0.794141C7.3217 0.456445 7.58147 0.189258 7.92287 0.133594C8.43498 0.0445312 8.96194 0 9.50002 0C10.0381 0 10.5651 0.0445313 11.0772 0.129883C11.4186 0.185547 11.6783 0.452734 11.7526 0.79043L12.2164 2.90938C12.8028 3.15059 13.352 3.46973 13.8492 3.85195L15.9162 3.19512C16.2428 3.09121 16.6065 3.18398 16.8254 3.44746C17.126 3.81113 17.4006 4.19707 17.6455 4.60527L17.8199 4.90586C18.0463 5.31406 18.243 5.73711 18.4063 6.17871L18.4026 6.18242ZM9.50002 12.4688C10.2874 12.4688 11.0425 12.156 11.5992 11.5992C12.156 11.0425 12.4688 10.2874 12.4688 9.5C12.4688 8.71264 12.156 7.95753 11.5992 7.40078C11.0425 6.84403 10.2874 6.53125 9.50002 6.53125C8.71266 6.53125 7.95755 6.84403 7.4008 7.40078C6.84405 7.95753 6.53127 8.71264 6.53127 9.5C6.53127 10.2874 6.84405 11.0425 7.4008 11.5992C7.95755 12.156 8.71266 12.4688 9.50002 12.4688Z" fill="black"/>
</g>
<defs>
<clipPath id="clip0_86_1521">
<rect width="19" height="19" fill="white"/>
</clipPath>
</defs>
</svg>
