<svg width="18" height="18" viewBox="0 0 18 18" fill="none" xmlns="http://www.w3.org/2000/svg">
<path d="M6.42857 2.125C6.42857 1.08984 7.29241 0.25 8.35714 0.25H9.64286C10.7076 0.25 11.5714 1.08984 11.5714 2.125V15.875C11.5714 16.9102 10.7076 17.75 9.64286 17.75H8.35714C7.29241 17.75 6.42857 16.9102 6.42857 15.875V2.125ZM0 9.625C0 8.58984 0.863839 7.75 1.92857 7.75H3.21429C4.27902 7.75 5.14286 8.58984 5.14286 9.625V15.875C5.14286 16.9102 4.27902 17.75 3.21429 17.75H1.92857C0.863839 17.75 0 16.9102 0 15.875V9.625ZM14.7857 2.75H16.0714C17.1362 2.75 18 3.58984 18 4.625V15.875C18 16.9102 17.1362 17.75 16.0714 17.75H14.7857C13.721 17.75 12.8571 16.9102 12.8571 15.875V4.625C12.8571 3.58984 13.721 2.75 14.7857 2.75Z" fill="black"/>
</svg>
