<svg width="13" height="19" viewBox="0 0 13 19" fill="none" xmlns="http://www.w3.org/2000/svg">
<path d="M11.5985 5.79454C12.0216 5.35509 12.0216 4.64142 11.5985 4.20197C11.1753 3.76251 10.488 3.76251 10.0649 4.20197L6.50002 7.90743L2.93179 4.20548C2.50861 3.76603 1.82137 3.76603 1.39819 4.20548C0.975016 4.64493 0.975016 5.35861 1.39819 5.79806L4.96642 9.50001L1.40158 13.2055C0.978402 13.6449 0.978402 14.3586 1.40158 14.7981C1.82476 15.2375 2.512 15.2375 2.93517 14.7981L6.50002 11.0926L10.0682 14.7945C10.4914 15.234 11.1787 15.234 11.6018 14.7945C12.025 14.3551 12.025 13.6414 11.6018 13.202L8.03361 9.50001L11.5985 5.79454Z" fill="#BFBFBF"/>
</svg>
